<svg width="32" height="32" viewBox="0 0 32 32" fill="none" xmlns="http://www.w3.org/2000/svg">
<g clip-path="url(#clip0_5_53)">
<g clip-path="url(#clip1_5_53)">
<path d="M16 19C17.6569 19 19 17.6569 19 16C19 14.3431 17.6569 13 16 13C14.3431 13 13 14.3431 13 16C13 17.6569 14.3431 19 16 19Z" fill="#FFF5D4"/>
<path d="M16 0.731445C17.1541 0.731503 18.2639 1.17664 19.0977 1.97461C19.9311 2.77232 20.4247 3.86114 20.4756 5.01367L20.4893 5.05469C20.4976 5.06649 20.5092 5.07546 20.5225 5.08105H20.5215C20.5348 5.08653 20.5503 5.08851 20.5645 5.08594C20.5785 5.08334 20.5911 5.07606 20.6016 5.06641L20.6025 5.06543C21.4228 4.31268 22.4961 3.89535 23.6094 3.89551H23.626C24.4931 3.89928 25.341 4.15387 26.0664 4.62891C26.7917 5.10392 27.3638 5.77905 27.7139 6.57227C28.0639 7.36556 28.1771 8.24356 28.0391 9.09961C27.901 9.95556 27.5181 10.7535 26.9365 11.3965L26.9346 11.3984C26.9248 11.409 26.9176 11.4224 26.915 11.4365C26.9125 11.4506 26.9145 11.4653 26.9199 11.4785C26.9254 11.4913 26.9339 11.5028 26.9453 11.5107L26.9854 11.5234C27.8544 11.562 28.6936 11.8538 29.3994 12.3623C30.1052 12.8708 30.6473 13.5746 30.959 14.3867C31.2706 15.1988 31.3386 16.0845 31.1543 16.9346C30.9701 17.7839 30.541 18.5601 29.9219 19.1699L29.9229 19.1709C29.1403 19.958 28.092 20.4245 26.9834 20.4795H26.9824C26.9681 20.4802 26.9542 20.485 26.9424 20.4932C26.9308 20.5013 26.9207 20.5124 26.915 20.5254C26.9096 20.5388 26.9085 20.5541 26.9111 20.5684L26.9307 20.6064L26.9316 20.6074C27.5171 21.2482 27.9033 22.0457 28.043 22.9023C28.1826 23.759 28.0694 24.6381 27.7178 25.4316C27.3661 26.225 26.7909 26.8993 26.0625 27.3711C25.3344 27.8427 24.4846 28.0911 23.6172 28.0879V28.0889H23.6016C22.4935 28.0901 21.4241 27.6791 20.6025 26.9355L20.6006 26.9336C20.5901 26.9239 20.5775 26.9167 20.5635 26.9141C20.5493 26.9115 20.5338 26.9125 20.5205 26.918C20.5076 26.9236 20.4964 26.9338 20.4883 26.9453C20.4801 26.9571 20.4753 26.971 20.4746 26.9854V26.9873C20.4137 28.1331 19.9156 29.2124 19.083 30.002C18.2504 30.7914 17.1464 31.2314 15.999 31.2314C14.8516 31.2314 13.7477 30.7915 12.915 30.002C12.0825 29.2124 11.5843 28.1331 11.5234 26.9873V26.9844C11.5228 26.9701 11.5179 26.956 11.5098 26.9443C11.5019 26.9332 11.491 26.9244 11.4785 26.9189L11.4355 26.9141C11.4215 26.9167 11.4089 26.9239 11.3984 26.9336L11.3955 26.9355C10.6242 27.6313 9.63604 28.0348 8.60254 28.0801L8.39551 28.084H8.37988C7.51308 28.0855 6.66456 27.8352 5.9375 27.3633C5.21023 26.8911 4.63554 26.2175 4.28418 25.4248C3.93289 24.6322 3.81946 23.7543 3.95801 22.8984C4.09668 22.0424 4.48176 21.2448 5.06543 20.6035L5.06641 20.6016C5.0762 20.5909 5.08336 20.5777 5.08594 20.5635C5.08838 20.5496 5.0862 20.5355 5.08105 20.5225L5.05469 20.4883C5.04279 20.4799 5.02819 20.4753 5.01367 20.4746H5.0127C3.86687 20.4137 2.78764 19.9156 1.99805 19.083C1.20851 18.2504 0.768583 17.1465 0.768555 15.999C0.768555 14.8516 1.20855 13.7477 1.99805 12.915C2.78764 12.0825 3.86688 11.5843 5.0127 11.5234H5.01562C5.02985 11.5228 5.04401 11.5179 5.05566 11.5098C5.06725 11.5016 5.07564 11.4897 5.08105 11.4766C5.08616 11.4635 5.08844 11.4493 5.08594 11.4355C5.08336 11.4214 5.07617 11.408 5.06641 11.3975L5.06445 11.3955C4.48502 10.7517 4.10367 9.95388 3.9668 9.09863C3.82995 8.24343 3.9434 7.36663 4.29297 6.57422C4.64257 5.7819 5.21366 5.10728 5.9375 4.63184C6.66132 4.15645 7.5071 3.90065 8.37305 3.89453H8.38867C9.50292 3.894 10.5769 4.31156 11.3975 5.06543L11.3984 5.06641C11.409 5.07619 11.4224 5.08337 11.4365 5.08594C11.4503 5.08836 11.4645 5.08625 11.4775 5.08105C11.4907 5.0756 11.5025 5.06639 11.5107 5.05469C11.5187 5.04315 11.5237 5.02965 11.5244 5.01562C11.575 3.86255 12.0685 2.77266 12.9023 1.97461C13.7361 1.17673 14.8459 0.731445 16 0.731445ZM17.8174 11.6113C16.9495 11.252 15.9945 11.1576 15.0732 11.3408C14.152 11.5241 13.3058 11.9766 12.6416 12.6406C11.9773 13.3049 11.5251 14.1518 11.3418 15.0732C11.1585 15.9945 11.2519 16.9495 11.6113 17.8174C11.9708 18.6853 12.5802 19.4273 13.3613 19.9492C14.1424 20.4711 15.0606 20.75 16 20.75L16.2354 20.7441C17.4089 20.6847 18.5226 20.1922 19.3574 19.3574C20.2479 18.467 20.7485 17.2593 20.75 16C20.75 15.0606 20.4711 14.1424 19.9492 13.3613C19.4273 12.5802 18.6853 11.9708 17.8174 11.6113Z" fill="#FF74B1" stroke="black" stroke-width="0.5"/>
<path d="M11.9861 7.00504C12.6822 6.6951 13.4715 6.66515 14.1887 6.92229C14.8803 7.17034 15.4513 7.66829 15.7963 8.31457C16.0954 7.67419 16.6142 7.16141 17.2616 6.87328L17.2714 6.86891C17.7954 6.63833 18.375 6.56354 18.9401 6.65513C19.5052 6.74674 20.0317 7.00058 20.4558 7.38491C20.8799 7.76923 21.184 8.26807 21.3305 8.82129C21.4701 9.34831 21.4585 9.90243 21.3033 10.4241C21.8166 10.2388 22.3719 10.1982 22.9072 10.3097C23.4693 10.4268 23.9848 10.7056 24.3908 11.1115C24.7969 11.5174 25.0755 12.0332 25.1926 12.5953C25.3095 13.1566 25.2587 13.7395 25.0492 14.2733L25.0505 14.2738C24.7992 14.9338 24.3179 15.4773 23.698 15.8123C24.1923 16.0438 24.6136 16.4069 24.9135 16.864C25.2278 17.3431 25.3964 17.9035 25.3973 18.4765C25.3982 19.0496 25.2317 19.6107 24.9189 20.091C24.6063 20.5708 24.1604 20.9482 23.6364 21.1793L23.6368 21.1802L23.627 21.1846C22.9824 21.4723 22.2578 21.5158 21.5831 21.3143C21.8262 22.0023 21.8092 22.7567 21.5289 23.4325C21.2385 24.1321 20.6909 24.6939 19.9988 25.0021C19.3068 25.3102 18.5228 25.3412 17.8087 25.0889C17.1188 24.845 16.5469 24.3528 16.1982 23.7118C15.8956 24.3476 15.3773 24.8552 14.7317 25.1408L14.7321 25.1417L14.7232 25.1456C14.2006 25.3795 13.6214 25.4567 13.056 25.3673C12.4905 25.278 11.963 25.0263 11.5382 24.6427C11.1135 24.2591 10.8097 23.7597 10.6635 23.2063C10.524 22.6782 10.5338 22.1221 10.6913 21.6001C10.004 21.8422 9.25145 21.826 8.57651 21.5465C7.87661 21.2565 7.31422 20.7088 7.00609 20.0168C6.69797 19.3248 6.66733 18.5405 6.92017 17.8263C7.16408 17.1376 7.65503 16.5667 8.29499 16.2179C7.80363 15.9833 7.38502 15.6187 7.08719 15.1618C6.77514 14.6829 6.60769 14.124 6.60583 13.5524C6.60398 12.9807 6.76822 12.4201 7.07725 11.9389C7.38626 11.4581 7.82817 11.0766 8.34879 10.8405L8.35771 10.8365C9.00523 10.5478 9.73341 10.5064 10.4096 10.7129C10.1602 10.024 10.1732 9.2661 10.4516 8.58618C10.7403 7.88132 11.2901 7.31501 11.9861 7.00504ZM15.921 13.0652C15.3375 13.0806 14.7718 13.2684 14.295 13.6053C13.8185 13.942 13.4523 14.4121 13.243 14.9566C13.0337 15.5014 12.9901 16.0966 13.1188 16.6657C13.2475 17.2345 13.5423 17.7526 13.9653 18.1541C14.3886 18.5557 14.9225 18.8226 15.4978 18.9214C16.0727 19.02 16.6635 18.9453 17.1966 18.7081C17.9112 18.3889 18.471 17.8001 18.7515 17.0697C19.0319 16.3395 19.0112 15.5278 18.6939 14.8131C18.4566 14.2803 18.0668 13.8294 17.5733 13.5182C17.0798 13.207 16.5045 13.0498 15.921 13.0652ZM8.36611 16.2503L8.36522 16.2507L8.36611 16.2503ZM8.38215 16.2143L8.38175 16.2134L8.38215 16.2143Z" fill="#FFEBF7" stroke="black" stroke-width="0.5"/>
</g>
</g>
<defs>
<clipPath id="clip0_5_53">
<rect width="32" height="32" fill="white"/>
</clipPath>
<clipPath id="clip1_5_53">
<rect width="32" height="32" fill="white"/>
</clipPath>
</defs>
</svg>
