<svg width="32" height="32" viewBox="0 0 32 32" fill="none" xmlns="http://www.w3.org/2000/svg">
<g clip-path="url(#clip0_5_48)">
<g clip-path="url(#clip1_5_48)">
<path d="M16 19C17.6569 19 19 17.6569 19 16C19 14.3431 17.6569 13 16 13C14.3431 13 13 14.3431 13 16C13 17.6569 14.3431 19 16 19Z" fill="#FFF5D4"/>
<path d="M16 0.731445C17.1541 0.731504 18.2639 1.17664 19.0977 1.97461C19.9311 2.77232 20.4247 3.86114 20.4756 5.01367L20.4893 5.05469C20.4976 5.06649 20.5092 5.07545 20.5225 5.08105H20.5215C20.5348 5.08653 20.5503 5.08851 20.5645 5.08594C20.5785 5.08334 20.5911 5.07606 20.6016 5.06641L20.6025 5.06543C21.4228 4.31268 22.4961 3.89535 23.6094 3.89551H23.626C24.4931 3.89928 25.341 4.15387 26.0664 4.62891C26.7917 5.10392 27.3638 5.77905 27.7139 6.57227C28.0639 7.36556 28.1771 8.24356 28.0391 9.09961C27.901 9.95556 27.5181 10.7535 26.9365 11.3965L26.9346 11.3984C26.9248 11.409 26.9176 11.4224 26.915 11.4365C26.9125 11.4506 26.9145 11.4653 26.9199 11.4785C26.9254 11.4913 26.9339 11.5028 26.9453 11.5107L26.9854 11.5234C27.8544 11.562 28.6936 11.8538 29.3994 12.3623C30.1052 12.8708 30.6473 13.5746 30.959 14.3867C31.2706 15.1988 31.3386 16.0845 31.1543 16.9346C30.9701 17.7839 30.541 18.5601 29.9219 19.1699L29.9229 19.1709C29.1403 19.958 28.092 20.4245 26.9834 20.4795H26.9824C26.9681 20.4802 26.9542 20.485 26.9424 20.4932C26.9308 20.5013 26.9207 20.5124 26.915 20.5254C26.9096 20.5388 26.9085 20.5541 26.9111 20.5684L26.9307 20.6064L26.9316 20.6074C27.5171 21.2482 27.9033 22.0457 28.043 22.9023C28.1826 23.759 28.0694 24.6381 27.7178 25.4316C27.3661 26.225 26.7909 26.8993 26.0625 27.3711C25.3344 27.8427 24.4846 28.0911 23.6172 28.0879V28.0889H23.6016C22.4935 28.0901 21.4241 27.6791 20.6025 26.9355L20.6006 26.9336C20.5901 26.9239 20.5775 26.9167 20.5635 26.9141C20.5493 26.9115 20.5338 26.9125 20.5205 26.918C20.5076 26.9236 20.4964 26.9338 20.4883 26.9453C20.4801 26.9571 20.4753 26.971 20.4746 26.9854V26.9873C20.4137 28.1331 19.9156 29.2124 19.083 30.002C18.2504 30.7914 17.1464 31.2314 15.999 31.2314C14.8516 31.2314 13.7477 30.7915 12.915 30.002C12.0825 29.2124 11.5843 28.1331 11.5234 26.9873V26.9844C11.5228 26.9701 11.5179 26.956 11.5098 26.9443C11.5019 26.9332 11.491 26.9244 11.4785 26.9189L11.4355 26.9141C11.4215 26.9167 11.4089 26.9239 11.3984 26.9336L11.3955 26.9355C10.6242 27.6313 9.63604 28.0348 8.60254 28.0801L8.39551 28.084H8.37988C7.51308 28.0855 6.66456 27.8352 5.9375 27.3633C5.21023 26.8911 4.63554 26.2175 4.28418 25.4248C3.93289 24.6322 3.81946 23.7543 3.95801 22.8984C4.09668 22.0424 4.48176 21.2448 5.06543 20.6035L5.06641 20.6016C5.07619 20.5909 5.08336 20.5777 5.08594 20.5635C5.08838 20.5496 5.0862 20.5355 5.08105 20.5225L5.05469 20.4883C5.04279 20.4799 5.02819 20.4753 5.01367 20.4746H5.0127C3.86687 20.4137 2.78764 19.9156 1.99805 19.083C1.20851 18.2504 0.768582 17.1465 0.768555 15.999C0.768555 14.8516 1.20855 13.7477 1.99805 12.915C2.78764 12.0825 3.86688 11.5843 5.0127 11.5234H5.01562C5.02985 11.5228 5.04401 11.5179 5.05566 11.5098C5.06724 11.5016 5.07564 11.4897 5.08105 11.4766C5.08616 11.4635 5.08844 11.4493 5.08594 11.4355C5.08336 11.4214 5.07617 11.408 5.06641 11.3975L5.06445 11.3955C4.48502 10.7517 4.10367 9.95388 3.9668 9.09863C3.82995 8.24343 3.9434 7.36663 4.29297 6.57422C4.64257 5.7819 5.21366 5.10728 5.9375 4.63184C6.66132 4.15645 7.5071 3.90065 8.37305 3.89453H8.38867C9.50292 3.894 10.5769 4.31156 11.3975 5.06543L11.3984 5.06641C11.409 5.07619 11.4224 5.08337 11.4365 5.08594C11.4503 5.08836 11.4645 5.08625 11.4775 5.08105C11.4908 5.0756 11.5025 5.06639 11.5107 5.05469C11.5187 5.04315 11.5237 5.02965 11.5244 5.01562C11.575 3.86255 12.0685 2.77266 12.9023 1.97461C13.7361 1.17673 14.8459 0.731445 16 0.731445ZM17.8174 11.6113C16.9495 11.252 15.9945 11.1576 15.0732 11.3408C14.152 11.5241 13.3058 11.9766 12.6416 12.6406C11.9773 13.3049 11.5251 14.1518 11.3418 15.0732C11.1585 15.9945 11.2519 16.9495 11.6113 17.8174C11.9708 18.6853 12.5802 19.4273 13.3613 19.9492C14.1424 20.4711 15.0606 20.75 16 20.75L16.2354 20.7441C17.4089 20.6847 18.5226 20.1922 19.3574 19.3574C20.2479 18.467 20.7485 17.2593 20.75 16C20.75 15.0606 20.4711 14.1424 19.9492 13.3613C19.4273 12.5802 18.6853 11.9708 17.8174 11.6113Z" fill="#FFEBF7" stroke="#574933" stroke-width="0.5"/>
<path d="M12.1437 6.93612C12.8452 6.63838 13.6349 6.6222 14.3475 6.89183C15.0346 7.1519 15.5969 7.65974 15.9306 8.31195C16.2407 7.67688 16.7684 7.17323 17.4208 6.89645L17.4307 6.89226C17.9586 6.67085 18.5394 6.60619 19.1028 6.70763C19.6662 6.80908 20.1882 7.07208 20.6056 7.46375C21.0229 7.85542 21.3182 8.35948 21.4551 8.91518C21.5854 9.44456 21.5642 9.99839 21.3999 10.5172C21.9163 10.3409 22.4723 10.3101 23.0055 10.4308C23.5655 10.5578 24.0761 10.8455 24.475 11.2584C24.8738 11.6714 25.1434 12.192 25.2507 12.756C25.3577 13.3193 25.2968 13.9012 25.078 14.4312L25.0793 14.4317C24.8166 15.0873 24.3258 15.6223 23.7002 15.9465C24.1904 16.1865 24.6052 16.5569 24.8971 17.0192C25.203 17.5037 25.3619 18.067 25.3527 18.6399C25.3436 19.2129 25.1673 19.771 24.8462 20.2458C24.5253 20.7201 24.0728 21.0897 23.5449 21.3116L23.5453 21.3125L23.5354 21.3167C22.8859 21.5931 22.1606 21.624 21.4896 21.4106C21.7206 22.1029 21.6905 22.8568 21.3984 23.5277C21.0958 24.222 20.5385 24.7742 19.8412 25.0702C19.1439 25.3663 18.3595 25.3836 17.6498 25.1188C16.9643 24.8629 16.4011 24.3609 16.0636 23.7138C15.75 24.3442 15.2229 24.8428 14.5725 25.117L14.5728 25.1179L14.5639 25.1217C14.0373 25.3464 13.4568 25.4135 12.893 25.3143C12.3292 25.2151 11.8062 24.9542 11.3881 24.5633C10.9701 24.1723 10.6752 23.6677 10.5386 23.1119C10.4084 22.5814 10.4279 22.0256 10.5945 21.5064C9.90299 21.7365 9.15088 21.7071 8.48092 21.4158C7.78618 21.1137 7.23343 20.5563 6.93743 19.859C6.64144 19.1617 6.62449 18.377 6.88976 17.6673C7.14564 16.9829 7.64649 16.4207 8.29244 16.0831C7.80524 15.84 7.39306 15.4682 7.10325 15.0061C6.79961 14.5219 6.64193 13.9601 6.65005 13.3886C6.65818 12.8169 6.83218 12.2592 7.14956 11.7836C7.46692 11.3082 7.91542 10.9345 8.44007 10.7075L8.44906 10.7037C9.10153 10.4263 9.83031 10.3976 10.5028 10.6159C10.2655 9.92275 10.2916 9.16519 10.5819 8.49024C10.8829 7.79052 11.4425 7.23389 12.1437 6.93612ZM15.9723 13.064C15.3887 13.0692 14.8197 13.2472 14.3372 13.5756C13.8548 13.904 13.4805 14.3677 13.2617 14.9084C13.043 15.4495 12.9889 16.0438 13.1077 16.615C13.2264 17.1861 13.5121 17.7092 13.9281 18.118C14.3444 18.5269 14.8735 18.8032 15.447 18.9119C16.0201 19.0205 16.6121 18.9562 17.1492 18.7283C17.8692 18.4217 18.4393 17.8427 18.7325 17.1173C19.0256 16.3921 19.0191 15.5802 18.7143 14.86C18.4863 14.3232 18.1044 13.8656 17.6165 13.5458C17.1284 13.226 16.556 13.0588 15.9723 13.064ZM8.36298 16.1168L8.36208 16.1172L8.36298 16.1168ZM8.37964 16.0811L8.37926 16.0802L8.37964 16.0811Z" fill="#FF74B1" stroke="#574933" stroke-width="0.5"/>
</g>
</g>
<defs>
<clipPath id="clip0_5_48">
<rect width="32" height="32" fill="white"/>
</clipPath>
<clipPath id="clip1_5_48">
<rect width="32" height="32" fill="white"/>
</clipPath>
</defs>
</svg>
